<svg width="32" height="32" viewBox="0 0 32 32" fill="none" xmlns="http://www.w3.org/2000/svg">
<rect width="32" height="32" rx="16" fill="white"/>
<path d="M11.59 17.51L18.42 21.49M18.41 10.51L11.59 14.49M24 9C24 10.6569 22.6569 12 21 12C19.3431 12 18 10.6569 18 9C18 7.34315 19.3431 6 21 6C22.6569 6 24 7.34315 24 9ZM12 16C12 17.6569 10.6569 19 9 19C7.34315 19 6 17.6569 6 16C6 14.3431 7.34315 13 9 13C10.6569 13 12 14.3431 12 16ZM24 23C24 24.6569 22.6569 26 21 26C19.3431 26 18 24.6569 18 23C18 21.3431 19.3431 20 21 20C22.6569 20 24 21.3431 24 23Z" stroke="#333333" stroke-linecap="round" stroke-linejoin="round"/>
</svg>
